<svg width="18" height="18" viewBox="0 0 18 18" fill="none" xmlns="http://www.w3.org/2000/svg">
<path d="M16.875 1.13754C16.7594 1.02166 16.622 0.929722 16.4708 0.866995C16.3196 0.804268 16.1575 0.77198 15.9938 0.77198C15.8301 0.77198 15.668 0.804268 15.5168 0.866995C15.3655 0.929722 15.2282 1.02166 15.1125 1.13754L9.00003 7.23753L2.88754 1.12504C2.77181 1.00931 2.63442 0.917508 2.48321 0.854877C2.33201 0.792245 2.16995 0.76001 2.00629 0.76001C1.84262 0.76001 1.68056 0.792245 1.52936 0.854877C1.37815 0.917508 1.24076 1.00931 1.12504 1.12504C1.00931 1.24076 0.917508 1.37815 0.854877 1.52936C0.792245 1.68056 0.76001 1.84262 0.76001 2.00629C0.76001 2.16995 0.792245 2.33201 0.854877 2.48321C0.917508 2.63442 1.00931 2.77181 1.12504 2.88754L7.23753 9.00003L1.12504 15.1125C1.00931 15.2283 0.917508 15.3656 0.854877 15.5169C0.792245 15.6681 0.76001 15.8301 0.76001 15.9938C0.76001 16.1574 0.792245 16.3195 0.854877 16.4707C0.917508 16.6219 1.00931 16.7593 1.12504 16.875C1.24076 16.9908 1.37815 17.0826 1.52936 17.1452C1.68056 17.2078 1.84262 17.2401 2.00629 17.2401C2.16995 17.2401 2.33201 17.2078 2.48321 17.1452C2.63442 17.0826 2.77181 16.9908 2.88754 16.875L9.00003 10.7625L15.1125 16.875C15.2283 16.9908 15.3656 17.0826 15.5169 17.1452C15.6681 17.2078 15.8301 17.2401 15.9938 17.2401C16.1574 17.2401 16.3195 17.2078 16.4707 17.1452C16.6219 17.0826 16.7593 16.9908 16.875 16.875C16.9908 16.7593 17.0826 16.6219 17.1452 16.4707C17.2078 16.3195 17.2401 16.1574 17.2401 15.9938C17.2401 15.8301 17.2078 15.6681 17.1452 15.5169C17.0826 15.3656 16.9908 15.2283 16.875 15.1125L10.7625 9.00003L16.875 2.88754C17.35 2.41254 17.35 1.61254 16.875 1.13754Z" fill="#525252"/>
</svg>
