<svg width="47" height="46" viewBox="0 0 47 46" fill="none" xmlns="http://www.w3.org/2000/svg">
<circle cx="23.5" cy="23" r="22" fill="white" stroke="#F3F3F3" stroke-width="2"/>
<path d="M34.69 11.8101C33.8509 10.972 32.7135 10.5012 31.5275 10.5012C30.3416 10.5012 29.2041 10.972 28.365 11.8101L13.425 26.7501C12.9169 27.2577 12.5599 27.8964 12.3938 28.5951L11.025 34.3476C10.988 34.5034 10.9914 34.6661 11.0351 34.8202C11.0788 34.9743 11.1612 35.1146 11.2745 35.2278C11.3878 35.341 11.5283 35.4233 11.6824 35.4668C11.8365 35.5103 11.9992 35.5136 12.155 35.4764L17.9063 34.1064C18.6054 33.9404 19.2446 33.5834 19.7525 33.0751L34.69 18.1376C35.5281 17.2985 35.9989 16.1611 35.9989 14.9751C35.9989 13.7892 35.5281 12.6517 34.69 11.8126M29.69 13.1376C29.9313 12.8963 30.2178 12.7049 30.5331 12.5743C30.8483 12.4437 31.1863 12.3765 31.5275 12.3765C31.8688 12.3765 32.2067 12.4437 32.522 12.5743C32.8372 12.7049 33.1237 12.8963 33.365 13.1376C33.6063 13.3789 33.7977 13.6654 33.9283 13.9807C34.0589 14.2959 34.1261 14.6339 34.1261 14.9751C34.1261 15.3164 34.0589 15.6543 33.9283 15.9696C33.7977 16.2848 33.6063 16.5713 33.365 16.8126L32.25 17.9239L28.575 14.2501L29.69 13.1376ZM27.25 15.5776L30.925 19.2501L18.425 31.7501C18.1625 32.0126 17.8325 32.1964 17.4713 32.2826L13.2013 33.3001L14.2175 29.0301C14.3038 28.6676 14.4888 28.3376 14.7513 28.0751L27.25 15.5776Z" fill="#757575"/>
</svg>
