<svg width="63" height="64" viewBox="0 0 63 64" fill="none" xmlns="http://www.w3.org/2000/svg">
<path d="M52.2309 21.1128L38.4497 7.33156C38.173 7.05457 37.7977 6.89878 37.4062 6.89844H13.7812C12.8675 6.89844 11.9912 7.26142 11.345 7.90755C10.6989 8.55367 10.3359 9.43 10.3359 10.3438V53.6562C10.3359 54.57 10.6989 55.4463 11.345 56.0925C11.9912 56.7386 12.8675 57.1016 13.7812 57.1016H49.2188C50.1325 57.1016 51.0088 56.7386 51.655 56.0925C52.3011 55.4463 52.6641 54.57 52.6641 53.6562V22.1562C52.6637 21.7648 52.5079 21.3895 52.2309 21.1128ZM38.8828 11.9384L47.6241 20.6797H38.8828V11.9384ZM49.2188 54.1484H13.7812C13.6507 54.1484 13.5255 54.0966 13.4332 54.0043C13.3409 53.912 13.2891 53.7868 13.2891 53.6562V10.3438C13.2891 10.2132 13.3409 10.088 13.4332 9.99572C13.5255 9.90342 13.6507 9.85156 13.7812 9.85156H35.9297V22.1562C35.9297 22.5479 36.0853 22.9234 36.3622 23.2003C36.6391 23.4772 37.0146 23.6328 37.4062 23.6328H49.7109V53.6562C49.7109 53.7868 49.6591 53.912 49.5668 54.0043C49.4745 54.0966 49.3493 54.1484 49.2188 54.1484Z" fill="#ADADAD"/>
</svg>
