<svg width="29" height="26" viewBox="0 0 29 26" fill="none" xmlns="http://www.w3.org/2000/svg">
<path d="M14.5 0C22.2333 0 28.5013 4.88533 28.5013 10.9133C28.5013 16.94 22.2333 21.8253 14.5013 21.8253C13.7315 21.824 12.9625 21.775 12.1987 21.6787L6.32134 25.5227C5.65334 25.876 5.41734 25.8373 5.69201 24.972L6.88134 20.068C3.04134 18.1213 0.501343 14.748 0.501343 10.9133C0.501343 4.88667 6.76801 0 14.5013 0M22.3787 10.7467L24.3387 8.848C24.4518 8.73054 24.5149 8.57378 24.5147 8.41073C24.5145 8.24767 24.451 8.09106 24.3376 7.97388C24.2242 7.8567 24.0698 7.78809 23.9069 7.78252C23.7439 7.77695 23.5851 7.83484 23.464 7.944L20.8933 10.432V8.376C20.8933 8.20909 20.827 8.04902 20.709 7.93099C20.591 7.81297 20.4309 7.74667 20.264 7.74667C20.0971 7.74667 19.937 7.81297 19.819 7.93099C19.701 8.04902 19.6347 8.20909 19.6347 8.376V11.7853C19.6125 11.8828 19.6125 11.9839 19.6347 12.0813V14C19.6347 14.1669 19.701 14.327 19.819 14.445C19.937 14.563 20.0971 14.6293 20.264 14.6293C20.4309 14.6293 20.591 14.563 20.709 14.445C20.827 14.327 20.8933 14.1669 20.8933 14V12.1827L21.4627 11.632L23.3667 14.3427C23.4142 14.4103 23.4746 14.468 23.5444 14.5123C23.6143 14.5567 23.6921 14.5868 23.7736 14.601C23.8551 14.6153 23.9385 14.6133 24.0192 14.5953C24.1 14.5773 24.1763 14.5435 24.244 14.496C24.3117 14.4485 24.3693 14.3881 24.4137 14.3182C24.458 14.2484 24.4881 14.1706 24.5024 14.0891C24.5166 14.0076 24.5147 13.9241 24.4966 13.8434C24.4786 13.7627 24.4449 13.6863 24.3973 13.6187L22.3787 10.7467ZM18.4347 13.312H16.488V8.396C16.4806 8.23427 16.4111 8.08164 16.294 7.96983C16.1769 7.85802 16.0212 7.79563 15.8593 7.79563C15.6974 7.79563 15.5418 7.85802 15.4247 7.96983C15.3076 8.08164 15.2381 8.23427 15.2307 8.396V13.9413C15.2307 14.288 15.5107 14.5707 15.8587 14.5707H18.4347C18.6016 14.5707 18.7617 14.5044 18.8797 14.3863C18.9977 14.2683 19.064 14.1082 19.064 13.9413C19.064 13.7744 18.9977 13.6143 18.8797 13.4963C18.7617 13.3783 18.6016 13.312 18.4347 13.312ZM10.6253 11.8573L11.5533 9.58L12.404 11.856L10.6253 11.8573ZM13.9893 12.5067L13.992 12.4853C13.9916 12.3268 13.9311 12.1744 13.8227 12.0587L12.428 8.32533C12.3695 8.14742 12.2582 7.99159 12.1088 7.87866C11.9594 7.76573 11.7791 7.70107 11.592 7.69333C11.4037 7.69325 11.2198 7.75012 11.0644 7.85649C10.909 7.96286 10.7894 8.11375 10.7213 8.28933L8.50534 13.7227C8.44222 13.8772 8.44307 14.0505 8.50771 14.2044C8.57235 14.3583 8.69548 14.4802 8.85001 14.5433C9.00454 14.6065 9.17782 14.6056 9.33173 14.541C9.48563 14.4763 9.60756 14.3532 9.67068 14.1987L10.1133 13.1147H12.8733L13.2707 14.1813C13.2978 14.2611 13.3406 14.3345 13.3966 14.3974C13.4527 14.4603 13.5207 14.5113 13.5968 14.5474C13.6729 14.5835 13.7554 14.6039 13.8396 14.6075C13.9237 14.6111 14.0077 14.5978 14.0866 14.5684C14.1655 14.5389 14.2377 14.4939 14.2989 14.4361C14.3601 14.3782 14.409 14.3087 14.4429 14.2315C14.4767 14.1544 14.4947 14.0713 14.4958 13.9871C14.4969 13.9029 14.4811 13.8193 14.4493 13.7413L13.9893 12.5067ZM9.55868 8.40267C9.55903 8.32003 9.54303 8.23815 9.51162 8.16172C9.4802 8.0853 9.43397 8.01584 9.3756 7.95735C9.31724 7.89886 9.24788 7.85249 9.17152 7.8209C9.09516 7.78932 9.01331 7.77316 8.93068 7.77333H4.60401C4.4371 7.77333 4.27703 7.83964 4.159 7.95766C4.04098 8.07568 3.97468 8.23576 3.97468 8.40267C3.97468 8.56958 4.04098 8.72965 4.159 8.84767C4.27703 8.9657 4.4371 9.032 4.60401 9.032H6.15068V14.0133C6.15068 14.1802 6.21698 14.3403 6.335 14.4583C6.45303 14.5764 6.6131 14.6427 6.78001 14.6427C6.94692 14.6427 7.10699 14.5764 7.22502 14.4583C7.34304 14.3403 7.40934 14.1802 7.40934 14.0133V9.032H8.92934C9.01209 9.03235 9.09408 9.01632 9.1706 8.98481C9.24711 8.95331 9.31663 8.90697 9.37514 8.84846C9.43365 8.78995 9.47999 8.72043 9.51149 8.64392C9.54299 8.5674 9.55903 8.48541 9.55868 8.40267Z" fill="black"/>
</svg>
